<svg version="1.1"
      xmlns="http://www.w3.org/2000/svg"
      xmlns:xlink="http://www.w3.org/1999/xlink"  id="snapshot-61444" width="250" height="250" viewBox="0 0 250 250"><desc>This image was made on Patterninja.com</desc><defs>
<!-- image 71672 -->
<g id="transformed-71672" data-image="71672" transform="translate(-124.5, -125) rotate(0, 124.5, 125)"><g><svg version="1.1" width="249px" height="250px" viewBox="0 0 249 250"><g id="original-71672"><svg xmlns="http://www.w3.org/2000/svg" viewBox="0 0 122.87 122.88" xmlns:xlink="http://www.w3.org/1999/xlink" version="1.1" preserveAspectRatio="xMidYMid meet">
  <path d="M1.61 97.18l5.38-5.38c.14-.14.29-.27.44-.4l-3.86-3.86c-.06-.06-.11-.12-.16-.18a5.461 5.461 0 0 1 .17-7.57l5.38-5.38c.14-.14.29-.27.44-.4l-3.86-3.86a5.493 5.493 0 0 1 0-7.75l5.38-5.38a5.473 5.473 0 0 1 3.88-1.6c1.41 0 2.81.53 3.88 1.6l47.21 47.21a5.473 5.473 0 0 1 1.6 3.88c0 1.41-.53 2.81-1.6 3.88l-5.38 5.38c-.06.06-.12.11-.18.16a5.478 5.478 0 0 1-7.57-.16l-3.27-3.27c-.12.15-.25.3-.39.44l-5.38 5.38c-.06.06-.12.11-.18.16a5.48 5.48 0 0 1-3.7 1.43c-1.41 0-2.81-.53-3.87-1.6l-4.46-4.46c-.12.15-.25.3-.4.44l-5.38 5.38a5.473 5.473 0 0 1-3.88 1.6c-1.4 0-2.81-.53-3.88-1.6L1.61 104.95A5.484 5.484 0 0 1 0 101.07c0-1.41.54-2.81 1.61-3.89zm64.24-88.2l-5.38 5.38-.05.05c-.08.11-.12.24-.12.37 0 .15.06.31.17.42l47.21 47.21a.607.607 0 0 0 .84 0l5.38-5.38.05-.05c.08-.1.12-.24.12-.37a.58.58 0 0 0-.16-.42l-7.13-7.13-32.37-32.35-7.72-7.72a.59.59 0 0 0-.42-.17.543.543 0 0 0-.42.16zm5.62 38.33a3.452 3.452 0 0 1 4.87 0 3.452 3.452 0 0 1 0 4.87l-23.6 23.58a3.452 3.452 0 0 1-4.87 0 3.452 3.452 0 0 1 0-4.87l23.6-23.58zm29.18-42.24l-5.38 5.38a.592.592 0 0 0-.06.78l.06.06 16.32 16.32.05.05c.1.08.23.11.36.11.15 0 .31-.06.42-.17l5.38-5.38a.592.592 0 0 0 .01-.84L101.49 5.07c-.11-.11-.26-.17-.42-.17s-.31.06-.42.17zm-8.84 1.91l5.38-5.38C98.26.53 99.67 0 101.07 0s2.81.53 3.88 1.6l16.32 16.32a5.423 5.423 0 0 1 1.59 3.87c0 1.41-.53 2.82-1.59 3.88l-5.38 5.38c-.14.14-.29.27-.44.4l4.46 4.46a5.473 5.473 0 0 1 1.6 3.88c0 1.41-.54 2.81-1.6 3.88l-5.38 5.38c-.14.14-.29.27-.44.39l3.27 3.27a5.45 5.45 0 0 1 1.6 3.87c0 1.33-.48 2.66-1.44 3.7-.05.06-.1.12-.16.18l-5.38 5.38a5.473 5.473 0 0 1-3.88 1.6c-1.41 0-2.81-.54-3.88-1.6L57.01 18.66a5.484 5.484 0 0 1-1.61-3.88c0-1.33.48-2.66 1.44-3.7.05-.06.1-.12.16-.18l5.38-5.38a5.45 5.45 0 0 1 3.87-1.6c1.41 0 2.81.54 3.88 1.6l3.86 3.86c.12-.15.25-.3.4-.44l5.38-5.38a5.484 5.484 0 0 1 7.76 0l3.86 3.86c.15-.15.28-.3.42-.44zm-8.56.05l-5.38 5.38a.59.59 0 0 0-.17.42c0 .15.05.3.16.41l.01.01 32.36 32.36c.11.11.26.17.42.17.16 0 .31-.05.42-.16l5.38-5.38a.607.607 0 0 0 0-.84l-8.31-8.31L84.09 7.03a.607.607 0 0 0-.42-.17.55.55 0 0 0-.42.17zM16.71 74.41l32.36 32.36 7.11 7.11c.11.11.27.16.42.16.13 0 .26-.04.37-.12l.05-.05 5.38-5.38a.607.607 0 0 0 0-.84L15.2 60.47a.607.607 0 0 0-.84 0l-5.38 5.38c-.11.11-.16.27-.16.42 0 .15.06.31.17.42l7.72 7.72zm28.95 35.88l-.05-.05-32.37-32.37-.06-.06a.592.592 0 0 0-.78.06l-5.38 5.38c-.11.11-.16.27-.16.42 0 .13.04.26.12.37l.05.05 7.72 7.72 16.32 16.32 8.32 8.32c.12.12.27.17.42.17.13 0 .26-.04.37-.12l.05-.05 5.38-5.38c.11-.11.16-.27.16-.42 0-.13-.04-.26-.11-.36zM10.45 95.27l-5.38 5.38c-.11.11-.17.26-.17.42s.06.31.17.42l16.32 16.32a.607.607 0 0 0 .84 0l5.38-5.38a.59.59 0 0 0 .17-.42.59.59 0 0 0-.17-.42L11.28 95.27l-.01-.01a.574.574 0 0 0-.41-.16c-.15 0-.3.06-.41.17z" fill="rgba(0, 0, 0, 1)" stroke="none"/>
</svg>
</g></svg></g></g>
<!-- /image 71672 -->
</defs><rect x="0" y="0" width="250" height="250" fill="rgba(152, 245, 154, 1)"></rect><use xlink:href="#transformed-71672" transform="translate(-250, -250)"></use><use xlink:href="#transformed-71672" transform="translate(0, -250)"></use><use xlink:href="#transformed-71672" transform="translate(250, -250)"></use><use xlink:href="#transformed-71672" transform="translate(-250, 0)"></use><use xlink:href="#transformed-71672" transform="translate(0, 0)"></use><use xlink:href="#transformed-71672" transform="translate(250, 0)"></use><use xlink:href="#transformed-71672" transform="translate(-250, 250)"></use><use xlink:href="#transformed-71672" transform="translate(0, 250)"></use><use xlink:href="#transformed-71672" transform="translate(250, 250)"></use></svg>